<?xml version="1.0" encoding="utf-8"?>
<!-- Generator: Adobe Illustrator 15.1.0, SVG Export Plug-In . SVG Version: 6.00 Build 0)  -->
<!DOCTYPE svg PUBLIC "-//W3C//DTD SVG 1.1//EN" "http://www.w3.org/Graphics/SVG/1.1/DTD/svg11.dtd">
<svg version="1.1" id="Layer_1" xmlns="http://www.w3.org/2000/svg" xmlns:xlink="http://www.w3.org/1999/xlink" x="0px" y="0px"
	 width="376.318px" height="82.261px" viewBox="211.637 258.634 376.318 82.261"
	 enable-background="new 211.637 258.634 376.318 82.261" xml:space="preserve">
<g>
	<path fill="#FFFFFF" d="M258.415,276.315v64.579h-20.137v-64.579h-26.641v-17.681h73.421v17.681H258.415z"/>
	<path fill="#FFFFFF" d="M487.53,340.895h-16.698l-41.62-47.637v47.637h-20.258v-82.26h16.818l41.621,49.111v-49.111h20.137V340.895
		z"/>
	<path fill="#FFFFFF" d="M555.42,340.895h-20.629v-25.538l-31.796-56.722h22.098l20.258,36.096l20.013-36.096h22.592l-32.534,56.478
		L555.42,340.895L555.42,340.895z"/>
	<g>
		<path fill="#73D97D" d="M296.526,312.49v-25.393l39.307-28.4v25.393l-25.862,15.635l25.862,15.637v25.532L296.526,312.49z"/>
		<path fill="#73D97D" d="M348.799,315.502l25.858-15.636l-25.858-15.637v-25.532l39.305,28.4v25.393l-39.305,28.403V315.502z"/>
	</g>
</g>
</svg>
